PathFileType	4	(X/Y/Z)	/home/abdul/Desktop/myosuite/custom_workspace/IK/output/S14_12_2.trc
DataRate	CameraRate	NumFrames	NumMarkers	Units	OrigDataRate	OrigDataStartFrame	OrigNumFrames
200.0	200.0	22	3	mm	200.0	1	2124
Frame#	Time	V_Shoulder			V_Elbow			V_Wrist		
		X1	Y1	Z1	X2	Y2	Z2	X3	Y3	Z3

1	0.0	-184.58992398265127	741.8150016168951	297.2947416623607	-231.43077436086713	536.9938278805081	23.712698993289607	-169.6691318194861	367.5911065015746	16.230624751592174
2	0.005	-184.61787485609577	741.8277378262674	297.28468782020826	-231.47431484909492	536.9837902809951	23.74049801123587	-169.68491763732806	367.60601337641015	16.161168967229624
3	0.01	-184.64629174987647	741.8400019594434	297.27556401371083	-231.51935207144538	536.9741088705883	23.769802972997468	-169.70304000940044	367.623220829601	16.091927198173885
4	0.015	-184.67514636210066	741.8517303755438	297.2674449082133	-231.56586563956478	536.9647716763878	23.800662260057205	-169.7235482470303	367.6427341835477	16.02324629278811
5	0.02	-184.70440920753992	741.862857851881	297.26040538243507	-231.6138310694185	536.9557616178613	23.833124616598145	-169.74648482208795	367.66454726650636	15.955492212177194
6	0.025	-184.73404966668377	741.873317664561	297.2545203356165	-231.6632196801711	536.9470562227624	23.86723911316981	-169.77188487344586	367.6886417357289	15.889049767178467
7	0.03	-184.76403603603532	741.883041670901	297.2498644927544	-231.71399849850087	536.9386273486214	23.90305511044473	-169.7997757188562	367.7149864092154	15.824322280926143
8	0.035	-184.79433557936514	741.8919603932028	297.24651220877837	-231.76613016877292	536.9304409110483	23.940622223291417	-169.8301763743187	367.74353660879353	15.761731175285073
9	0.04	-184.82491457964807	741.9000031034299	297.2445372725222	-231.81957286949535	536.9224566201085	23.97999028537279	-169.86309708304177	367.77423351731545	15.701715479682242
10	0.045	-184.85573839141637	741.9070979083434	297.2440127113402	-231.874280236481	536.914627726057	24.021209314456414	-169.89853885612308	367.8070035528299	15.644731261113733
11	0.05	-184.88677149327432	741.9131718346808	297.2450105972047	-231.93020129313112	536.9069007757327	24.0643294785959	-169.93649302708832	367.8417577626408	15.591250974369398
12	0.055	-184.91797754033027	741.9181509139648	297.2476018551087	-231.98728038824925	536.899215380931	24.10940106331141	-169.97694082243004	367.8783912402172	15.541762731797242
13	0.06	-184.94931941631748	741.9219602665668	297.25185607457394	-232.04545714178306	536.891504000083	24.156474439862905	-170.0198529502842	367.91678256795615	15.496769492223592
14	0.065	-184.9807592851879	741.9245241846689	297.2578413250422	-232.10466639887693	536.8836917345764	24.20560003467256	-170.06518920936526	367.9567932888296	15.456788168952876
15	0.07	-185.0122586419778	741.9257662137956	297.26562397589845	-232.16483819260299	536.8756961410522	24.25682829991359	-170.11289812025666	367.99826740996275	15.422348657091323
16	0.075	-185.04377836276174	741.9256092326162	297.27526852184155	-232.2258977157195	536.8674270610135	24.31020968524224	-170.16291658111828	368.0410309411998	15.393992780771296
17	0.08	-185.0752787535256	741.9239755307534	297.28683741428546	-232.2877653017851	536.8587864690629	24.365794610608233	-170.21516954982923	368.08489147170224	15.372273161196022
18	0.085	-185.10671959780652	741.9207868843608	297.3003908994344	-232.35035641593527	536.8496683410815	24.42363344003745	-170.26956975453015	368.1296377876094	15.357752006777144
19	0.09	-185.13806020296485	741.9159646292692	297.31598686363674	-232.4135816556023	536.8399585436299	24.48377645623927	-170.32601743446543	368.17503953375297	15.35099982699839
20	0.095	-185.16925944496793	741.9094297315328	297.33368068658046	-232.47734676143585	536.8295347458309	24.54627383585082	-170.38440011295404	368.22084692237263	15.352594072006465
21	0.1	-185.2002758115848	741.9011028552419	297.3535251028489	-232.5415526386529	536.8182663549522	24.611175625091278	-170.44459240423402	368.2667904917149	15.363117700303368
22	0.105	-185.23106744390452	741.8909044275006	297.37557007231095	-232.6060953890186	536.8060144768717	24.67853171556248	-170.506455855835	368.3125809173217	15.383157677291063
